<svg xmlns="http://www.w3.org/2000/svg" viewBox="0 0 76.02 55.59"><defs><style>.cls-1{fill:#fff;}</style></defs><g id="Layer_2" data-name="Layer 2"><g id="Site"><path id="X" class="cls-1" d="M39.78,53.79c5.36.46,20.58-21.26,23.14-25.19a1.1,1.1,0,0,0,0-1.17c-1.89-3.14-9.81-15.86-15.7-14a1.41,1.41,0,0,0-.32.17c-.29.16-.41-1.35.92-1.9s6.75-5.38,17,9.48A1.11,1.11,0,0,0,66.77,21c2-4.32,6.44-14.55,4.17-19.43A1.1,1.1,0,0,1,72.47.14c1.6.9,3.4,3.07,3.55,7.25,0,2.15-3.39,13.89-6.59,20a1.08,1.08,0,0,0,0,1c1.46,3.27,6.38,13.34,6,15.28-.22,1.3-2.37,3.49-3.93,4a1.08,1.08,0,0,1-1.38-.73c-.49-1.65-.41-5.51-3-11.2a1.11,1.11,0,0,0-1.93-.15C60.78,42.36,50,59.45,39.62,54.79,39.19,54.6,39.31,53.75,39.78,53.79Z"/><g id="Trade"><path d="M11.16,33.07c2.25,0,4.47,0,6.68,0,1,0,1.58.9,1.29,2s-.67,2.32-1,3.47c-.19.65-.39,1.3-.57,2a1.64,1.64,0,0,1-1.37,1.33,1.41,1.41,0,0,1,.49,1.76q-.84,2.88-1.71,5.76a.61.61,0,0,1-.4.34c-1,0-2,0-3.14,0,.07-.27.12-.5.18-.73l1.62-5.47c.23-.79.17-.82-.61-.89-.63-.05-.86.17-1,.77-1,3.48-2,7-3.07,10.45H5C7.09,46.88,9.12,40,11.16,33.07Zm1.37,7.07c.34,0,.6,0,.86,0a1,1,0,0,0,1.22-.93c.2-.79.45-1.57.67-2.35.32-1.11.29-1.14-.87-1.14a.75.75,0,0,0-.3,0c-.13.06-.31.14-.34.25C13.35,37.35,13,38.71,12.53,40.14Z"/><path d="M27.88,33.05c-.76,5.58-1.5,11.08-2.26,16.61H22.19l.49-2.95c-.67,0-1.31,0-1.93,0-.16,0-.36.23-.43.4-.84,2-1.66,4-2.49,6-.09.23-.19.45-.29.69H14l1.46-3.41c2.41-5.55,4.83-11.1,7.22-16.66A1,1,0,0,1,23.75,33C25.1,33.09,26.45,33.05,27.88,33.05ZM21.45,44.13H23.1l1.16-6.7-.15,0Z"/><path d="M26.3,49.65,31.18,33.1c.13,0,.27,0,.4,0q3,0,6.09,0c1.31,0,1.88.75,1.52,2q-1.83,6.24-3.68,12.48a2.48,2.48,0,0,1-2.6,2.1C30.74,49.7,28.57,49.65,26.3,49.65Zm4.27-2.75a9.11,9.11,0,0,1,.92,0,.86.86,0,0,0,1.05-.76c.17-.74.42-1.45.64-2.18q1.09-3.73,2.18-7.48c.19-.63.1-.74-.53-.75h-1C32.76,39.45,31.68,43.12,30.57,46.9Z"/><path d="M3.86,53.83H0Q3.53,41.89,7,30H10.9Z"/><path d="M46.58,36.07c-.89,0-1.75,0-2.61,0-.33,0-.49.06-.59.43-.27,1.06-.61,2.11-.93,3.21h3l-.85,2.93h-3L40.44,46.5h3.18c-.38,1-.72,2-1.08,3a.47.47,0,0,1-.36.22c-2,0-4,0-6.16,0l4.89-16.6h6.56Z"/><path d="M3.67,29.45c.46-1.06.89-2.07,1.34-3.07a.49.49,0,0,1,.36-.23H15.43l-1,3.31Z"/></g></g></g></svg>