<?xml version="1.0" encoding="UTF-8"?>
<svg id="Layer_2" data-name="Layer 2" xmlns="http://www.w3.org/2000/svg" viewBox="0 0 438.19 604.89">
  <defs>
    <style>
      .cls-1 {
        fill: #000;
      }

      .cls-1, .cls-2 {
        stroke-width: 0px;
      }

      .cls-2 {
        fill: #f20606;
      }
    </style>
  </defs>
  <g id="Layer_3" data-name="Layer 3">
    <path class="cls-2" d="M107.89,529.53h-52.53c26.45-77.32,66.78-234.29,93.12-311.32h53.71c-26.47,77.21-67.8,234.01-94.3,311.32Z"/>
    <path id="X" class="cls-1" d="M43.81,585.37c58.3,5.02,223.96-231.35,251.81-274.13,2.5-3.85,2.6-8.77.23-12.71-20.57-34.23-106.74-172.58-170.82-152.57-1.25.39-2.36,1.11-3.5,1.76-3.16,1.83-4.49-14.61,10.02-20.65,15.16-6.32,73.41-58.49,185.24,103.15,5.27,7.62,16.83,6.62,20.72-1.79,21.75-47,70.06-158.35,45.43-211.44-4.82-10.39,6.65-21.05,16.63-15.45,17.39,9.77,37.01,33.42,38.62,78.86,0,23.44-36.84,151.16-71.69,217.6-1.71,3.26-1.84,7.09-.34,10.45,15.93,35.68,69.37,145.19,65.32,166.34-2.45,14.18-25.79,37.91-42.77,43.62-6.33,2.13-13.2-1.55-15.09-7.96-5.29-17.92-4.43-59.92-32.1-121.83-3.87-8.65-15.8-9.58-20.97-1.64-48.2,73.93-165.94,259.95-278.49,209.28-4.7-2.12-3.39-11.34,1.74-10.9Z"/>
    <path class="cls-2" d="M0,207.89c5.7-14.04,11.05-27.48,16.7-40.78.63-1.49,2.95-3.06,4.49-3.06,51.27-.21,384.53-.13,416.99-.13-4.29,15.66-6.75,24.61-12.05,43.97H0Z"/>
  </g>
</svg>