<?xml version="1.0" encoding="UTF-8"?>
<svg id="Layer_2" data-name="Layer 2" xmlns="http://www.w3.org/2000/svg" viewBox="0 0 55.3 55.02">
  <defs>
    <style>
      .cls-1 {
        fill: #ce0522;
        stroke-width: 0px;
      }
    </style>
  </defs>
  <g id="Site">
    <g>
      <path class="cls-1" d="M46.84,22.89v32.13H0V8.18h32.49c-.34,1.1-.53,2.27-.53,3.49,0,6.44,5.22,11.67,11.67,11.67,1.12,0,2.19-.16,3.21-.45Z"/>
      <path class="cls-1" d="M55.3,11.67c0,3.22-1.3,6.14-3.42,8.25-1.38,1.38-3.1,2.42-5.04,2.97v-14.71h-14.35c.57-1.82,1.57-3.45,2.89-4.76,2.11-2.12,5.02-3.42,8.25-3.42s6.14,1.3,8.25,3.42c2.12,2.11,3.42,5.02,3.42,8.25Z"/>
    </g>
  </g>
</svg>